<svg width="58" height="30" viewBox="0 0 58 30" fill="none" xmlns="http://www.w3.org/2000/svg">
    <g clip-path="url(#clip0_96_2)">
        <path d="M15.6537 10.8243L10.7672 1.23459H0L4.89011 10.8243L7.12797 15.2176L9.77667 20.414L17.8952 15.2176L15.6537 10.8243Z" fill="black"/>
        <path d="M14.6632 30H26.4209L31.3075 20.414H9.77667L14.6632 30Z" fill="black"/>
        <path d="M37.1845 10.8243L32.298 1.23459H21.5308L26.4209 10.8243L28.6588 15.2176L31.3075 20.414L39.426 15.2176L37.1845 10.8243Z" fill="black"/>
        <path d="M31.3075 20.414L36.194 30H47.9518L52.8383 20.414H31.3075Z" fill="black"/>
        <path d="M52.5859 10.8243C55.576 10.8243 58 8.40118 58 5.41214C58 2.4231 55.576 0 52.5859 0C49.5957 0 47.1717 2.4231 47.1717 5.41214C47.1717 8.40118 49.5957 10.8243 52.5859 10.8243Z" fill="black"/>
    </g>
    <defs>
        <clipPath id="clip0_96_2">
            <rect width="58" height="30" fill="white"/>
        </clipPath>
    </defs>
</svg>
